<svg xmlns="http://www.w3.org/2000/svg" width="24" height="24" viewBox="0 0 24 24" fill="none">
  <g clip-path="url(#clip0_48_719)">
    <path d="M17 3C18.3261 3 19.5979 3.52678 20.5355 4.46447C21.4732 5.40215 22 6.67392 22 8V16C22 17.3261 21.4732 18.5979 20.5355 19.5355C19.5979 20.4732 18.3261 21 17 21H3C2.73478 21 2.48043 20.8946 2.29289 20.7071C2.10536 20.5196 2 20.2652 2 20V8C2 6.67392 2.52678 5.40215 3.46447 4.46447C4.40215 3.52678 5.67392 3 7 3H17ZM17 5H7C6.20435 5 5.44129 5.31607 4.87868 5.87868C4.31607 6.44129 4 7.20435 4 8V19H17C17.7956 19 18.5587 18.6839 19.1213 18.1213C19.6839 17.5587 20 16.7956 20 16V8C20 7.20435 19.6839 6.44129 19.1213 5.87868C18.5587 5.31607 17.7956 5 17 5ZM9 10C9.26522 10 9.51957 10.1054 9.70711 10.2929C9.89464 10.4804 10 10.7348 10 11V13C10 13.2652 9.89464 13.5196 9.70711 13.7071C9.51957 13.8946 9.26522 14 9 14C8.73478 14 8.48043 13.8946 8.29289 13.7071C8.10536 13.5196 8 13.2652 8 13V11C8 10.7348 8.10536 10.4804 8.29289 10.2929C8.48043 10.1054 8.73478 10 9 10ZM15 10C15.2449 10 15.4813 10.09 15.6644 10.2527C15.8474 10.4155 15.9643 10.6397 15.993 10.883L16 11V13C15.9997 13.2549 15.9021 13.5 15.7272 13.6854C15.5522 13.8707 15.313 13.9822 15.0586 13.9972C14.8042 14.0121 14.5536 13.9293 14.3582 13.7657C14.1627 13.6021 14.0371 13.3701 14.007 13.117L14 13V11C14 10.7348 14.1054 10.4804 14.2929 10.2929C14.4804 10.1054 14.7348 10 15 10Z" fill="#0D3DD5"/>
  </g>
  <defs>
    <clipPath id="clip0_48_719">
      <rect width="24" height="24" fill="white"/>
    </clipPath>
  </defs>
</svg>