<svg xmlns="http://www.w3.org/2000/svg" width="32" height="33" viewBox="0 0 32 33" fill="none">
  <g clip-path="url(#clip0_48_239)">
    <path fill-rule="evenodd" clip-rule="evenodd" d="M5.15771 27.3423C5.67841 27.863 6.52263 27.863 7.04333 27.3423L24.8807 9.50492L25.9885 19.4756C26.0699 20.2075 26.7291 20.7349 27.461 20.6536C28.1928 20.5723 28.7202 19.913 28.6389 19.1812L27.2247 6.45324C27.1558 5.83344 26.6665 5.34417 26.0467 5.27531L13.3188 3.86109C12.587 3.77977 11.9277 4.30715 11.8464 5.03903C11.7651 5.7709 12.2925 6.43013 13.0243 6.51145L22.9951 7.6193L5.15771 25.4567C4.63701 25.9774 4.63701 26.8216 5.15771 27.3423Z" fill="white"/>
  </g>
  <defs>
    <clipPath id="clip0_48_239">
      <rect width="32" height="32" fill="white" transform="matrix(1 0 0 -1 0 32.5)"/>
    </clipPath>
  </defs>
</svg>