<svg xmlns="http://www.w3.org/2000/svg" width="64" height="65" viewBox="0 0 64 65" fill="none">
  <path d="M19.616 9.43763C21.7983 7.78488 24.4625 6.89346 27.2 6.90003C28.1455 6.87883 29.081 7.09644 29.92 7.53273C30.759 7.96902 31.4744 8.60989 32 9.39603C32.5256 8.60989 33.2411 7.96902 34.0801 7.53273C34.9191 7.09644 35.8546 6.87883 36.8 6.90003C39.5376 6.89346 42.2017 7.78488 44.384 9.43763C46.064 10.7432 47.36 12.5512 47.8176 14.7368C48.8672 14.8168 49.8272 15.252 50.6336 15.908C51.856 16.9 52.7456 18.388 53.3056 19.9624C54.1824 22.4104 54.4192 25.5304 53.5104 28.1864C53.7408 28.2952 53.968 28.4232 54.1888 28.5704C55.0688 29.156 55.7376 29.9944 56.2304 30.9832C57.2 32.9192 57.6 35.62 57.6 38.9C57.6 42.5512 56.208 45.0024 54.4416 46.516C53.4648 47.3536 52.3121 47.9605 51.0688 48.292C50.7488 50.0776 49.8528 52.1448 48.448 53.8984C46.624 56.1864 43.7952 58.1 40 58.1C36.992 58.1 34.5984 56.436 33.0432 54.804C32.6714 54.4144 32.3231 54.003 32 53.572C31.677 54.003 31.3287 54.4144 30.9568 54.804C29.4016 56.436 27.0112 58.1 24 58.1C20.2048 58.1 17.3792 56.1864 15.552 53.8984C14.2393 52.2682 13.3401 50.3448 12.9312 48.292C11.688 47.9605 10.5352 47.3536 9.55842 46.516C7.79202 45.0024 6.40002 42.548 6.40002 38.9C6.40002 35.62 6.80322 32.916 7.76962 30.9832C8.22764 30.0135 8.9315 29.1806 9.81122 28.5672C10.0273 28.4242 10.2541 28.2979 10.4896 28.1896C9.58082 25.5272 9.81762 22.4104 10.6944 19.9624C11.2544 18.388 12.144 16.9 13.3664 15.908C14.1728 15.252 15.1328 14.82 16.1824 14.7368C16.6432 12.5512 17.936 10.7432 19.616 9.43763ZM30.4 14.9V14.868L30.3936 14.708C30.3465 13.8738 30.1806 13.0506 29.9008 12.2632C29.7017 11.6689 29.3625 11.1311 28.912 10.6952C28.4394 10.2836 27.8261 10.0704 27.2 10.1C25.1742 10.0931 23.2014 10.7469 21.5808 11.9624C20.096 13.1176 19.2 14.6824 19.2 16.5C19.1998 16.7534 19.1395 17.0031 19.0239 17.2286C18.9083 17.4541 18.7408 17.6489 18.5352 17.797C18.3296 17.9452 18.0918 18.0423 17.8413 18.0805C17.5908 18.1187 17.3348 18.0969 17.0944 18.0168C16.4928 17.8184 15.9552 17.9304 15.3824 18.3912C14.7552 18.9032 14.144 19.812 13.7056 21.0376C12.8128 23.54 12.9056 26.5704 14.1312 28.4136C14.3063 28.6761 14.3998 28.9845 14.4 29.3H16.8C18.7096 29.3 20.5409 30.0586 21.8912 31.4089C23.2415 32.7591 24 34.5905 24 36.5V37.572C25.0676 37.9495 25.9673 38.6921 26.5402 39.6688C27.1132 40.6455 27.3224 41.7932 27.1309 42.9092C26.9394 44.0252 26.3596 45.0376 25.4939 45.7674C24.6282 46.4972 23.5323 46.8975 22.4 46.8975C21.2677 46.8975 20.1719 46.4972 19.3062 45.7674C18.4405 45.0376 17.8606 44.0252 17.6692 42.9092C17.4777 41.7932 17.6869 40.6455 18.2598 39.6688C18.8327 38.6921 19.7325 37.9495 20.8 37.572V36.5C20.8 34.292 19.008 32.5 16.8 32.5H11.2C11.0087 32.4997 10.8191 32.465 10.64 32.3976L10.6304 32.4168C9.99682 33.6808 9.60002 35.78 9.60002 38.9C9.60002 41.6488 10.608 43.1976 11.6416 44.084C12.752 45.0376 13.984 45.3 14.4 45.3C14.8244 45.3 15.2313 45.4686 15.5314 45.7687C15.8315 46.0687 16 46.4757 16 46.9C16 48.0776 16.64 50.1352 18.048 51.9016C19.4208 53.6136 21.3952 54.9 24 54.9C25.792 54.9 27.3984 53.8984 28.64 52.596C29.2512 51.956 29.728 51.2936 30.0384 50.7496C30.1797 50.5084 30.3007 50.2558 30.4 49.9944V24.5H26.928C26.5506 25.5676 25.8079 26.4673 24.8313 27.0402C23.8546 27.6132 22.7068 27.8224 21.5908 27.6309C20.4749 27.4394 19.4625 26.8596 18.7327 25.9939C18.0028 25.1282 17.6025 24.0323 17.6025 22.9C17.6025 21.7677 18.0028 20.6719 18.7327 19.8062C19.4625 18.9405 20.4749 18.3606 21.5908 18.1692C22.7068 17.9777 23.8546 18.1869 24.8313 18.7598C25.8079 19.3327 26.5506 20.2325 26.928 21.3H30.4V14.9ZM33.6 46.8968V49.9912C33.6994 50.2526 33.8204 50.5052 33.9616 50.7464C34.2752 51.2904 34.7488 51.9528 35.3568 52.5928C36.6016 53.8952 38.2112 54.8968 40 54.8968C42.6048 54.8968 44.5792 53.6104 45.952 51.8984C47.36 50.132 48 48.0744 48 46.8968C48 46.4725 48.1686 46.0655 48.4687 45.7655C48.7687 45.4654 49.1757 45.2968 49.6 45.2968C50.016 45.2968 51.248 45.0344 52.3584 44.0808C53.392 43.1944 54.4 41.6456 54.4 38.8968C54.4 35.7768 54 33.6808 53.3696 32.4136C53.1587 31.9418 52.8277 31.5335 52.4096 31.2296C52.0493 30.9993 51.6274 30.8843 51.2 30.9C50.9106 30.8999 50.6267 30.8212 50.3784 30.6725C50.1301 30.5237 49.9269 30.3104 49.7903 30.0552C49.6537 29.8001 49.5888 29.5127 49.6027 29.2236C49.6165 28.9345 49.7085 28.6546 49.8688 28.4136C51.0976 26.5704 51.1872 23.54 50.2944 21.0376C49.856 19.812 49.2448 18.9 48.6176 18.3912C48.0448 17.9304 47.5072 17.8152 46.9056 18.0168C46.6652 18.0969 46.4092 18.1187 46.1587 18.0805C45.9083 18.0423 45.6704 17.9452 45.4648 17.797C45.2592 17.6489 45.0917 17.4541 44.9762 17.2286C44.8606 17.0031 44.8002 16.7534 44.8 16.5C44.8 14.6824 43.904 13.1176 42.416 11.9624C40.7963 10.7476 38.8247 10.0938 36.8 10.1C36.174 10.0704 35.5607 10.2836 35.088 10.6952C34.6362 11.1306 34.2959 11.6684 34.096 12.2632C33.7914 13.0991 33.6239 13.9787 33.6 14.868V43.7H36C38.208 43.7 40 41.908 40 39.7V33.828C38.9325 33.4506 38.0327 32.7079 37.4598 31.7313C36.8869 30.7546 36.6777 29.6069 36.8692 28.4909C37.0606 27.3749 37.6405 26.3625 38.5062 25.6327C39.3719 24.9028 40.4677 24.5026 41.6 24.5026C42.7323 24.5026 43.8282 24.9028 44.6939 25.6327C45.5596 26.3625 46.1394 27.3749 46.3309 28.4909C46.5224 29.6069 46.3132 30.7546 45.7402 31.7313C45.1673 32.7079 44.2676 33.4506 43.2 33.828V39.7C43.2 41.6096 42.4415 43.4409 41.0912 44.7912C39.7409 46.1415 37.9096 46.9 36 46.9H33.6V46.8968ZM20.8 22.9C20.8 23.3244 20.9686 23.7313 21.2687 24.0314C21.5687 24.3315 21.9757 24.5 22.4 24.5C22.8244 24.5 23.2313 24.3315 23.5314 24.0314C23.8315 23.7313 24 23.3244 24 22.9C24 22.4757 23.8315 22.0687 23.5314 21.7687C23.2313 21.4686 22.8244 21.3 22.4 21.3C21.9757 21.3 21.5687 21.4686 21.2687 21.7687C20.9686 22.0687 20.8 22.4757 20.8 22.9ZM41.6 30.9C42.0244 30.9 42.4313 30.7315 42.7314 30.4314C43.0315 30.1313 43.2 29.7244 43.2 29.3C43.2 28.8757 43.0315 28.4687 42.7314 28.1687C42.4313 27.8686 42.0244 27.7 41.6 27.7C41.1757 27.7 40.7687 27.8686 40.4687 28.1687C40.1686 28.4687 40 28.8757 40 29.3C40 29.7244 40.1686 30.1313 40.4687 30.4314C40.7687 30.7315 41.1757 30.9 41.6 30.9ZM22.4 40.5C21.9757 40.5 21.5687 40.6686 21.2687 40.9687C20.9686 41.2687 20.8 41.6757 20.8 42.1C20.8 42.5244 20.9686 42.9313 21.2687 43.2314C21.5687 43.5315 21.9757 43.7 22.4 43.7C22.8244 43.7 23.2313 43.5315 23.5314 43.2314C23.8315 42.9313 24 42.5244 24 42.1C24 41.6757 23.8315 41.2687 23.5314 40.9687C23.2313 40.6686 22.8244 40.5 22.4 40.5Z" fill="#34A1F1"/>
</svg>