<svg xmlns="http://www.w3.org/2000/svg" width="64" height="64" viewBox="0 0 64 64" fill="none">
  <path d="M32 15.56L31.374 15.75L6.374 24.126L0.690002 26L4 27.06V44.56C2.806 45.254 2 46.52 2 48C2 49.0609 2.42143 50.0783 3.17158 50.8285C3.92172 51.5786 4.93914 52 6 52C7.06087 52 8.07828 51.5786 8.82843 50.8285C9.57858 50.0783 10 49.0609 10 48C10 46.52 9.194 45.254 8 44.56V28.44L12 29.75V40C12 41.64 13 43 14.188 43.94C15.376 44.874 16.852 45.534 18.624 46.126C22.172 47.306 26.848 48 32 48C37.152 48 41.828 47.308 45.376 46.124C47.148 45.534 48.624 44.874 49.812 43.938C51 43 52 41.64 52 40V29.75L57.626 27.874L63.31 26L57.624 24.124L32.624 15.75L32 15.56ZM32 19.75L50.75 26L32 32.25L13.25 26L32 19.75ZM16 31.126L31.376 36.25L32 36.438L32.626 36.248L48 31.124V40C48 40.02 48.008 40.252 47.374 40.75C46.742 41.25 45.608 41.88 44.124 42.376C41.16 43.362 36.79 44 32 44C27.21 44 22.84 43.364 19.874 42.374C18.394 41.88 17.258 41.248 16.626 40.75C15.99 40.25 16 40.02 16 40V31.126Z" fill="#34A1F1"/>
</svg>